<svg width="398" height="398" viewBox="0 0 398 398" fill="none" xmlns="http://www.w3.org/2000/svg">
<g filter="url(#filter0_d_381_487)">
<mask id="path-1-inside-1_381_487" fill="white">
<path fill-rule="evenodd" clip-rule="evenodd" d="M257.741 131.807L256.375 95.6826L226.307 114.592C218.675 112.34 210.593 111.131 202.227 111.131C155.54 111.131 117.693 148.785 117.693 195.235C117.693 241.684 155.54 279.339 202.227 279.339C248.913 279.339 286.76 241.684 286.76 195.235C286.76 169.924 275.523 147.225 257.741 131.807Z"/>
</mask>
<path fill-rule="evenodd" clip-rule="evenodd" d="M257.741 131.807L256.375 95.6826L226.307 114.592C218.675 112.34 210.593 111.131 202.227 111.131C155.54 111.131 117.693 148.785 117.693 195.235C117.693 241.684 155.54 279.339 202.227 279.339C248.913 279.339 286.76 241.684 286.76 195.235C286.76 169.924 275.523 147.225 257.741 131.807Z" fill="white"/>
<path d="M256.375 95.6826L261.315 95.4958L260.991 86.9385L253.742 91.4974L256.375 95.6826ZM257.741 131.807L252.8 131.993L252.881 134.137L254.502 135.542L257.741 131.807ZM226.307 114.592L224.907 119.334L227.049 119.966L228.939 118.777L226.307 114.592ZM251.434 95.8695L252.8 131.993L262.681 131.62L261.315 95.4958L251.434 95.8695ZM228.939 118.777L259.007 99.8679L253.742 91.4974L223.675 110.407L228.939 118.777ZM202.227 116.075C210.114 116.075 217.726 117.214 224.907 119.334L227.706 109.85C219.625 107.465 211.071 106.187 202.227 106.187V116.075ZM122.637 195.235C122.637 151.54 158.247 116.075 202.227 116.075V106.187C152.833 106.187 112.749 146.031 112.749 195.235H122.637ZM202.227 274.395C158.247 274.395 122.637 238.93 122.637 195.235H112.749C112.749 244.439 152.833 284.283 202.227 284.283V274.395ZM281.816 195.235C281.816 238.93 246.206 274.395 202.227 274.395V284.283C251.62 284.283 291.704 244.439 291.704 195.235H281.816ZM254.502 135.542C271.25 150.065 281.816 171.422 281.816 195.235H291.704C291.704 168.426 279.795 144.386 260.98 128.071L254.502 135.542Z" fill="black" mask="url(#path-1-inside-1_381_487)"/>
<path d="M170.196 213.496C168.13 213.496 166.256 213.152 164.575 212.463C162.922 211.746 161.613 210.699 160.649 209.321C159.684 207.944 159.161 206.249 159.078 204.238H165.691C165.719 205.037 165.925 205.739 166.311 206.346C166.697 206.952 167.221 207.434 167.882 207.792C168.543 208.123 169.315 208.288 170.196 208.288C170.94 208.288 171.588 208.178 172.139 207.958C172.718 207.71 173.172 207.365 173.503 206.924C173.834 206.456 173.999 205.877 173.999 205.188C173.999 204.472 173.806 203.866 173.42 203.37C173.035 202.846 172.511 202.405 171.85 202.047C171.188 201.661 170.417 201.317 169.535 201.014C168.681 200.683 167.758 200.366 166.766 200.063C164.479 199.319 162.715 198.313 161.475 197.046C160.263 195.778 159.657 194.084 159.657 191.962C159.657 190.199 160.084 188.697 160.938 187.457C161.82 186.189 163.018 185.225 164.534 184.564C166.049 183.902 167.772 183.572 169.7 183.572C171.684 183.572 173.434 183.916 174.95 184.605C176.465 185.266 177.664 186.244 178.545 187.54C179.427 188.807 179.896 190.323 179.951 192.086H173.296C173.269 191.48 173.09 190.929 172.759 190.433C172.456 189.937 172.029 189.537 171.478 189.234C170.954 188.931 170.334 188.78 169.618 188.78C168.984 188.752 168.405 188.848 167.882 189.069C167.386 189.262 166.973 189.579 166.642 190.019C166.339 190.433 166.187 190.956 166.187 191.59C166.187 192.196 166.339 192.734 166.642 193.202C166.973 193.643 167.413 194.029 167.965 194.359C168.543 194.662 169.204 194.952 169.948 195.227C170.72 195.503 171.56 195.778 172.47 196.054C173.93 196.55 175.266 197.142 176.479 197.831C177.719 198.493 178.711 199.374 179.455 200.476C180.226 201.551 180.612 202.984 180.612 204.775C180.612 206.346 180.199 207.792 179.372 209.115C178.573 210.437 177.402 211.498 175.859 212.297C174.343 213.096 172.456 213.496 170.196 213.496ZM183.643 213V184.068H194.885C197.255 184.068 199.211 184.467 200.754 185.266C202.325 186.065 203.496 187.168 204.267 188.573C205.039 189.951 205.425 191.507 205.425 193.243C205.425 194.869 205.053 196.371 204.309 197.749C203.565 199.126 202.421 200.242 200.878 201.096C199.335 201.951 197.337 202.378 194.885 202.378H189.843V213H183.643ZM189.843 197.418H194.472C196.098 197.418 197.269 197.046 197.985 196.302C198.729 195.53 199.101 194.511 199.101 193.243C199.101 191.948 198.729 190.943 197.985 190.226C197.269 189.482 196.098 189.11 194.472 189.11H189.843V197.418ZM207.782 213V184.068H213.981V213H207.782ZM217.874 213V184.068H224.074L236.763 203.08V184.068H242.962V213H236.763L224.074 194.07V213H217.874Z" fill="black"/>
<path d="M269.784 188.627C269.954 190.209 270.068 191.806 270.126 193.419L269.126 193.454C269.154 194.241 269.168 195.032 269.168 195.826C269.168 196.62 269.154 197.41 269.126 198.197L270.126 198.233C270.068 199.845 269.954 201.443 269.784 203.024L268.79 202.917C268.62 204.497 268.394 206.06 268.115 207.604L269.099 207.783C268.812 209.367 268.469 210.931 268.072 212.475L267.104 212.226C266.709 213.761 266.26 215.275 265.759 216.766L266.707 217.084C266.195 218.608 265.629 220.108 265.012 221.58L264.09 221.194C263.478 222.654 262.816 224.087 262.104 225.491L262.996 225.943C262.271 227.375 261.495 228.778 260.672 230.149L259.814 229.634C259.001 230.989 258.139 232.313 257.233 233.603L258.051 234.178C257.129 235.49 256.161 236.767 255.15 238.009L254.374 237.377C253.377 238.601 252.336 239.789 251.255 240.938L251.983 241.624C250.885 242.79 249.746 243.918 248.568 245.005L247.89 244.269C246.73 245.339 245.532 246.368 244.297 247.354L244.921 248.135C243.671 249.134 242.384 250.089 241.062 250.999L240.495 250.176C239.197 251.07 237.866 251.919 236.503 252.721L237.01 253.583C235.632 254.394 234.223 255.157 232.785 255.872L232.34 254.976C230.93 255.676 229.491 256.328 228.027 256.929L228.406 257.854C226.93 258.46 225.427 259.016 223.899 259.519L223.586 258.569C222.093 259.061 220.576 259.502 219.038 259.889L219.282 260.859C217.737 261.248 216.171 261.585 214.586 261.866L214.411 260.881C212.865 261.156 211.301 261.377 209.72 261.543L209.825 262.538C208.243 262.704 206.645 262.817 205.033 262.873L204.999 261.873C204.211 261.901 203.42 261.914 202.626 261.914C201.832 261.914 201.041 261.901 200.254 261.873L200.219 262.873C198.607 262.817 197.009 262.704 195.427 262.538L195.532 261.543C193.951 261.377 192.387 261.156 190.841 260.881L190.666 261.866C189.081 261.585 187.515 261.248 185.97 260.859L186.214 259.889C184.676 259.502 183.159 259.061 181.666 258.569L181.353 259.519C179.826 259.016 178.323 258.46 176.846 257.854L177.226 256.929C175.761 256.328 174.322 255.676 172.912 254.976L172.468 255.872C171.029 255.157 169.62 254.394 168.242 253.583L168.749 252.721C167.387 251.919 166.055 251.07 164.757 250.176L164.19 250.999C162.868 250.089 161.581 249.134 160.331 248.135L160.955 247.354C159.721 246.368 158.522 245.339 157.363 244.269L156.685 245.005C155.506 243.918 154.367 242.79 153.269 241.624L153.998 240.938C152.916 239.789 151.875 238.601 150.878 237.377L150.103 238.009C149.091 236.767 148.123 235.49 147.201 234.178L148.019 233.603C147.113 232.313 146.252 230.989 145.438 229.634L144.581 230.149C143.757 228.778 142.982 227.375 142.256 225.943L143.148 225.491C142.436 224.087 141.774 222.654 141.162 221.194L140.24 221.58C139.623 220.108 139.057 218.608 138.545 217.084L139.493 216.766C138.992 215.275 138.543 213.761 138.149 212.226L137.18 212.475C136.783 210.931 136.44 209.367 136.154 207.783L137.138 207.604C136.858 206.06 136.632 204.497 136.462 202.917L135.468 203.024C135.298 201.443 135.184 199.845 135.127 198.233L136.126 198.197C136.098 197.41 136.084 196.62 136.084 195.826C136.084 195.032 136.098 194.241 136.126 193.454L135.127 193.419C135.184 191.806 135.298 190.209 135.468 188.627L136.462 188.734C136.632 187.154 136.858 185.591 137.138 184.047L136.154 183.869C136.44 182.285 136.783 180.72 137.18 179.177L138.149 179.425C138.543 177.89 138.992 176.376 139.493 174.885L138.545 174.567C139.057 173.043 139.623 171.544 140.24 170.071L141.162 170.457C141.774 168.998 142.436 167.564 143.148 166.16L142.256 165.708C142.982 164.276 143.757 162.873 144.581 161.502L145.438 162.017C146.252 160.662 147.113 159.339 148.019 158.049L147.201 157.474C148.123 156.162 149.091 154.884 150.103 153.643L150.878 154.274C151.875 153.05 152.916 151.863 153.998 150.713L153.269 150.028C154.367 148.861 155.506 147.733 156.685 146.647L157.363 147.382C158.522 146.312 159.721 145.284 160.955 144.298L160.331 143.516C161.581 142.517 162.868 141.562 164.19 140.652L164.757 141.476C166.055 140.582 167.387 139.733 168.749 138.93L168.242 138.069C169.62 137.258 171.029 136.494 172.468 135.78L172.912 136.675C174.322 135.975 175.761 135.324 177.226 134.722L176.846 133.797C178.323 133.191 179.826 132.635 181.353 132.132L181.666 133.082C183.159 132.59 184.676 132.149 186.214 131.762L185.97 130.792C187.515 130.403 189.081 130.067 190.667 129.785L190.841 130.77C192.387 130.496 193.951 130.274 195.532 130.108L195.428 129.113C197.009 128.947 198.607 128.835 200.219 128.779L200.254 129.778C201.041 129.751 201.832 129.737 202.626 129.737C203.42 129.737 204.211 129.751 204.999 129.778L205.033 128.779C206.645 128.835 208.243 128.947 209.825 129.113L209.72 130.108C211.301 130.274 212.865 130.496 214.411 130.77L214.586 129.785C216.171 130.067 217.737 130.403 219.282 130.792L219.038 131.762C220.576 132.149 222.093 132.59 223.586 133.082L223.899 132.132C225.427 132.635 226.93 133.191 228.406 133.797L228.027 134.722C229.491 135.324 230.93 135.975 232.34 136.675L232.785 135.78C234.223 136.494 235.632 137.258 237.01 138.069L236.503 138.93C237.866 139.733 239.197 140.582 240.495 141.476L241.062 140.652C242.384 141.562 243.671 142.517 244.921 143.516L244.297 144.298C245.532 145.284 246.73 146.312 247.89 147.382L248.568 146.647C249.746 147.733 250.885 148.861 251.983 150.028L251.255 150.713C252.336 151.863 253.377 153.05 254.374 154.274L255.15 153.643C256.161 154.884 257.129 156.162 258.051 157.474L257.233 158.049C258.139 159.339 259.001 160.662 259.814 162.017L260.672 161.502C261.495 162.873 262.271 164.276 262.996 165.708L262.104 166.16C262.816 167.564 263.478 168.998 264.09 170.457L265.012 170.071C265.629 171.544 266.195 173.043 266.707 174.567L265.759 174.885C266.26 176.376 266.709 177.89 267.104 179.425L268.072 179.177C268.469 180.72 268.812 182.285 269.099 183.869L268.115 184.047C268.394 185.591 268.62 187.154 268.79 188.734L269.784 188.627Z" stroke="#BCBCBC" stroke-width="2" stroke-dasharray="5 5"/>
</g>
<defs>
<filter id="filter0_d_381_487" x="54.8209" y="36.1062" width="294.812" height="309.401" filterUnits="userSpaceOnUse" color-interpolation-filters="sRGB">
<feFlood flood-opacity="0" result="BackgroundImageFix"/>
<feColorMatrix in="SourceAlpha" type="matrix" values="0 0 0 0 0 0 0 0 0 0 0 0 0 0 0 0 0 0 127 0" result="hardAlpha"/>
<feOffset dy="3.29607"/>
<feGaussianBlur stdDeviation="31.4362"/>
<feComposite in2="hardAlpha" operator="out"/>
<feColorMatrix type="matrix" values="0 0 0 0 0 0 0 0 0 0 0 0 0 0 0 0 0 0 0.35 0"/>
<feBlend mode="normal" in2="BackgroundImageFix" result="effect1_dropShadow_381_487"/>
<feBlend mode="normal" in="SourceGraphic" in2="effect1_dropShadow_381_487" result="shape"/>
</filter>
</defs>
</svg>
