<svg width="408" height="408" viewBox="0 0 408 408" fill="none" xmlns="http://www.w3.org/2000/svg">
<circle cx="204" cy="204" r="201.472" fill="url(#paint0_linear_379_486)" stroke="black" stroke-width="4.9441"/>
<mask id="path-2-outside-1_379_486" maskUnits="userSpaceOnUse" x="97" y="199" width="311" height="209" fill="black">
<rect fill="white" x="97" y="199" width="311" height="209"/>
<path d="M403 204C403 238.928 393.807 273.241 376.344 303.491C358.882 333.741 333.765 358.861 303.518 376.329C273.271 393.796 238.96 402.995 204.031 403C169.103 403.005 134.789 393.818 104.536 376.36L204 204H403Z"/>
</mask>
<path d="M403 204C403 238.928 393.807 273.241 376.344 303.491C358.882 333.741 333.765 358.861 303.518 376.329C273.271 393.796 238.96 402.995 204.031 403C169.103 403.005 134.789 393.818 104.536 376.36L204 204H403Z" fill="url(#paint1_linear_379_486)"/>
<path d="M403 204C403 238.928 393.807 273.241 376.344 303.491C358.882 333.741 333.765 358.861 303.518 376.329C273.271 393.796 238.96 402.995 204.031 403C169.103 403.005 134.789 393.818 104.536 376.36L204 204H403Z" stroke="black" stroke-width="9.8882" mask="url(#path-2-outside-1_379_486)"/>
<mask id="path-3-outside-2_379_486" maskUnits="userSpaceOnUse" x="97" y="0" width="311" height="209" fill="black">
<rect fill="white" x="97" width="311" height="209"/>
<path d="M403 204C403 169.072 393.807 134.759 376.344 104.509C358.882 74.2594 333.765 49.1387 303.518 31.6714C273.271 14.2041 238.96 5.00549 204.031 5C169.103 4.99451 134.789 14.1823 104.536 31.6401L204 204H403Z"/>
</mask>
<path d="M403 204C403 169.072 393.807 134.759 376.344 104.509C358.882 74.2594 333.765 49.1387 303.518 31.6714C273.271 14.2041 238.96 5.00549 204.031 5C169.103 4.99451 134.789 14.1823 104.536 31.6401L204 204H403Z" fill="url(#paint2_linear_379_486)"/>
<path d="M403 204C403 169.072 393.807 134.759 376.344 104.509C358.882 74.2594 333.765 49.1387 303.518 31.6714C273.271 14.2041 238.96 5.00549 204.031 5C169.103 4.99451 134.789 14.1823 104.536 31.6401L204 204H403Z" stroke="black" stroke-width="9.8882" mask="url(#path-3-outside-2_379_486)"/>
<defs>
<linearGradient id="paint0_linear_379_486" x1="-5.30021" y1="213.064" x2="130.408" y2="178.041" gradientUnits="userSpaceOnUse">
<stop stop-color="#00FF60"/>
<stop offset="1" stop-color="#DDFFC2"/>
</linearGradient>
<linearGradient id="paint1_linear_379_486" x1="192.876" y1="374.983" x2="355.599" y2="236.494" gradientUnits="userSpaceOnUse">
<stop stop-color="#FFB948"/>
<stop offset="1" stop-color="white"/>
</linearGradient>
<linearGradient id="paint2_linear_379_486" x1="392.7" y1="176.395" x2="127.366" y2="158.679" gradientUnits="userSpaceOnUse">
<stop stop-color="#E8FF5D"/>
<stop offset="1" stop-color="#F8F8F2"/>
</linearGradient>
</defs>
</svg>
